
Cover:
 
http://ia.media-imdb.com/images/M/MV5BNTg5NzI3NzQzNl5BMl5BanBnXkFtZTcwMjM3MDU2OA@@._V1._SY317_CR2,0,214,317_.jpg

Release info:

General
Format                                   : Matroska
Format version                           : Version 2
File size                                : 508 MiB
Duration                                 : 2h 6mn
Overall bit rate mode                    : Variable
Overall bit rate                         : 562 Kbps


Video
ID                                       : 1
Format                                   : MPEG Video
Format version                           : Version 2
Format profile                           : Main@Main
Format settings, BVOP                    : No
Format settings, Matrix                  : Default
Codec ID                                 : V_MPEG2
Codec ID/Info                            : MPEG 1 or 2 Video
Duration                                 : 2h 6mn
Bit rate mode                            : Variable
Bit rate                                 : 423 Kbps
Maximum bit rate                         : 9 672 Kbps
Width                                    : 352 pixels
Height                                   : 288 pixels
Display aspect ratio                     : 4:3
Frame rate mode                          : Constant
Frame rate                               : 25.000 fps
Standard                                 : PAL
Color space                              : YUV
Chroma subsampling                       : 4:2:0
Bit depth                                : 8 bits
Scan type                                : Progressive
Compression mode                         : Lossy
Bits/(Pixel*Frame)                       : 0.167
Stream size                              : 382 MiB (75%)
Language                                 : Hindi
Default                                  : Yes
Forced                                   : No

Audio
ID                                       : 2
Format                                   : MPEG Audio
Format version                           : Version 1
Format profile                           : Layer 3
Mode                                     : Joint stereo
Mode extension                           : MS Stereo
Muxing mode                              : Header stripping
Codec ID                                 : A_MPEG/L3
Codec ID/Hint                            : MP3
Duration                                 : 2h 6mn
Bit rate mode                            : Constant
Bit rate                                 : 128 Kbps
Channel(s)                               : 2 channels
Sampling rate                            : 44.1 KHz
Compression mode                         : Lossy
Delay relative to video                  : -600ms
Stream size                              : 116 MiB (23%)
Language                                 : Hindi
Default                                  : Yes
Forced                                   : No


Source:
credit to original movie ripper  (Thanks)

IMDB Info:

A cop, a housewife and a prostitute get entangled in a mystery that links their lives in unexpected ways.

Director: Reema Kagti
Writers: Zoya Akhtar (story), Anurag Kashyap

Stars: Aamir Khan, Kareena Kapoor and Rani Mukerji
Genres: Crime | Drama | Thriller

 
http://www.imdb.com/title/tt1787988/

Screen Shot:
 
http://www.shotpix.com/images/25485849489776859076.png 
http://www.shotpix.com/images/27506616215399768114.png 
http://www.shotpix.com/images/72647713932323463484.png 
http://www.shotpix.com/images/43549050275316984841.png 
http://www.shotpix.com/images/78098500288395687864.png 
http://www.shotpix.com/images/06425316892310693231.png 
http://www.shotpix.com/images/40449690277173778946.png